# xmcd
#
# Track frame offsets: 
#        150
#        17066
#        34442
#        47348
#        64384
#        86406
#        99913
#        113617
#        130292
#        133771
#        148005
#
# Disc length: 2249 seconds
#
# Revision: 0
# Processed by: cddbd v1.5.2PL0 Copyright (c) Steve Scherf et al.
# Submitted via: ExactAudioCopy v0.99pb5
#
DISCID=9408c70b
DTITLE=Sassparilla - Ramshackle
DYEAR=2010
DGENRE=Blues
TTITLE0=Devil
TTITLE1=Fire Sale
TTITLE2=Love Song
TTITLE3=Mexico
TTITLE4=Cooling Board
TTITLE5=Dagger
TTITLE6=Bruised By Tears
TTITLE7=Ticket To Ride
TTITLE8=La Luz y El Bacín del Cigarro
TTITLE9=Sawdust
TTITLE10=Toothbrush
EXTD=
EXTT0=
EXTT1=
EXTT2=
EXTT3=
EXTT4=
EXTT5=
EXTT6=
EXTT7=
EXTT8=
EXTT9=
EXTT10=
PLAYORDER=
